REM DIRINDEX 1\2,1\3,1\4,1\5,1\6
REM DIRNAME "folder01","folder02","folder03","folder04","folder05","folder06"
TITLE ""
FILE "Disc2Track30.mp3" MP3
  TRACK 01 AUDIO
    TITLE "2:cjc161_02830"
    INDEX 01 00:00:00
  TRACK 02 AUDIO
    TITLE "0:"
    INDEX 01 00:04:08
  TRACK 03 AUDIO
    TITLE "3:cjc161_02831"
    INDEX 01 00:04:24
  TRACK 04 AUDIO
    TITLE "4:cjc161_02832"
    INDEX 01 00:05:37
  TRACK 05 AUDIO
    TITLE "5:cjc161_02833"
    INDEX 01 00:06:42
  TRACK 06 AUDIO
    TITLE "6:cjc161_02834"
    INDEX 01 00:07:53
  TRACK 07 AUDIO
    TITLE "0:"
    INDEX 01 00:11:06
  TRACK 08 AUDIO
    TITLE "3:cjc161_02835"
    INDEX 01 00:11:39
  TRACK 09 AUDIO
    TITLE "4:cjc161_02836"
    INDEX 01 00:12:57
  TRACK 10 AUDIO
    TITLE "5:cjc161_02837"
    INDEX 01 00:13:62
  TRACK 11 AUDIO
    TITLE "0:"
    INDEX 01 00:15:06
  TRACK 12 AUDIO
    TITLE "3:cjc161_02838"
    INDEX 01 00:15:45
  TRACK 13 AUDIO
    TITLE "4:cjc161_02839"
    INDEX 01 00:17:03
  TRACK 14 AUDIO
    TITLE "5:cjc161_02840"
    INDEX 01 00:18:73
  TRACK 15 AUDIO
    TITLE "6:cjc161_02841"
    INDEX 01 00:20:29
  TRACK 16 AUDIO
    TITLE "0:"
    INDEX 01 00:23:07
  TRACK 17 AUDIO
    TITLE "3:cjc161_02842"
    INDEX 01 00:23:39
  TRACK 18 AUDIO
    TITLE "4:cjc161_02843"
    INDEX 01 00:24:66
  TRACK 19 AUDIO
    TITLE "5:cjc161_02844"
    INDEX 01 00:26:08
  TRACK 20 AUDIO
    TITLE "6:cjc161_02845"
    INDEX 01 00:27:33
  TRACK 21 AUDIO
    TITLE "0:"
    INDEX 01 00:30:09
  TRACK 22 AUDIO
    TITLE "3:cjc161_02846"
    INDEX 01 00:30:41
  TRACK 23 AUDIO
    TITLE "4:cjc161_02847"
    INDEX 01 00:32:01
  TRACK 24 AUDIO
    TITLE "5:cjc161_02848"
    INDEX 01 00:34:07
  TRACK 25 AUDIO
    TITLE "6:cjc161_02849"
    INDEX 01 00:35:38
  TRACK 26 AUDIO
    TITLE "0:"
    INDEX 01 00:37:23
  TRACK 27 AUDIO
    TITLE "3:cjc161_02850"
    INDEX 01 00:37:57
  TRACK 28 AUDIO
    TITLE "4:cjc161_02851"
    INDEX 01 00:39:12
  TRACK 29 AUDIO
    TITLE "5:cjc161_02852"
    INDEX 01 00:40:20
  TRACK 30 AUDIO
    TITLE "0:"
    INDEX 01 00:41:52
  TRACK 31 AUDIO
    TITLE "3:cjc161_02853"
    INDEX 01 00:42:20
  TRACK 32 AUDIO
    TITLE "4:cjc161_02854"
    INDEX 01 00:43:40
  TRACK 33 AUDIO
    TITLE "5:cjc161_02855"
    INDEX 01 00:45:36
  TRACK 34 AUDIO
    TITLE "6:cjc161_02856"
    INDEX 01 00:46:54
  TRACK 35 AUDIO
    TITLE "0:"
    INDEX 01 00:50:47
  TRACK 36 AUDIO
    TITLE "3:cjc161_02857"
    INDEX 01 00:51:04
  TRACK 37 AUDIO
    TITLE "4:cjc161_02858"
    INDEX 01 00:52:29
  TRACK 38 AUDIO
    TITLE "5:cjc161_02859"
    INDEX 01 00:53:52
  TRACK 39 AUDIO
    TITLE "6:cjc161_02860"
    INDEX 01 00:54:75
  TRACK 40 AUDIO
    TITLE "0:"
    INDEX 01 00:57:30
  TRACK 41 AUDIO
    TITLE "3:cjc161_02861"
    INDEX 01 00:57:61
  TRACK 42 AUDIO
    TITLE "4:cjc161_02862"
    INDEX 01 00:59:29
  TRACK 43 AUDIO
    TITLE "5:cjc161_02863"
    INDEX 01 01:00:32
  TRACK 44 AUDIO
    TITLE "0:"
    INDEX 01 01:01:75
  TRACK 45 AUDIO
    TITLE "3:cjc161_02864"
    INDEX 01 01:02:43
  TRACK 46 AUDIO
    TITLE "4:cjc161_02865"
    INDEX 01 01:04:02
  TRACK 47 AUDIO
    TITLE "5:cjc161_02866"
    INDEX 01 01:06:39
  TRACK 48 AUDIO
    TITLE "6:cjc161_02867"
    INDEX 01 01:07:71
  TRACK 49 AUDIO
    TITLE "0:"
    INDEX 01 01:10:72
  TRACK 50 AUDIO
    TITLE "3:cjc161_02868"
    INDEX 01 01:11:28
  TRACK 51 AUDIO
    TITLE "4:cjc161_02869"
    INDEX 01 01:12:63
  TRACK 52 AUDIO
    TITLE "5:cjc161_02870"
    INDEX 01 01:13:46
  TRACK 53 AUDIO
    TITLE "0:"
    INDEX 01 01:15:08
  TRACK 54 AUDIO
    TITLE "3:cjc161_02871"
    INDEX 01 01:15:45
  TRACK 55 AUDIO
    TITLE "4:cjc161_02872"
    INDEX 01 01:16:68
  TRACK 56 AUDIO
    TITLE "5:cjc161_02873"
    INDEX 01 01:19:22
  TRACK 57 AUDIO
    TITLE "6:cjc161_02874"
    INDEX 01 01:20:45
  TRACK 58 AUDIO
    TITLE "0:"
    INDEX 01 01:25:20
  TRACK 59 AUDIO
    TITLE "3:cjc161_02875"
    INDEX 01 01:25:52
  TRACK 60 AUDIO
    TITLE "4:cjc161_02876"
    INDEX 01 01:27:07
  TRACK 61 AUDIO
    TITLE "5:cjc161_02877"
    INDEX 01 01:28:09
  TRACK 62 AUDIO
    TITLE "0:"
    INDEX 01 01:29:45
  TRACK 63 AUDIO
    TITLE "3:cjc161_02878"
    INDEX 01 01:30:06
  TRACK 64 AUDIO
    TITLE "4:cjc161_02879"
    INDEX 01 01:31:40
  TRACK 65 AUDIO
    TITLE "5:cjc161_02880"
    INDEX 01 01:32:67
  TRACK 66 AUDIO
    TITLE "6:cjc161_02881"
    INDEX 01 01:34:25
  TRACK 67 AUDIO
    TITLE "0:"
    INDEX 01 01:38:66
  TRACK 68 AUDIO
    TITLE "3:cjc161_02882"
    INDEX 01 01:39:22
  TRACK 69 AUDIO
    TITLE "4:cjc161_02883"
    INDEX 01 01:40:53
  TRACK 70 AUDIO
    TITLE "5:cjc161_02884"
    INDEX 01 01:42:29
  TRACK 71 AUDIO
    TITLE "6:cjc161_02885"
    INDEX 01 01:43:57
  TRACK 72 AUDIO
    TITLE "0:"
    INDEX 01 01:47:73
